<svg id="Layer_1" data-name="Layer 1" xmlns="http://www.w3.org/2000/svg" xmlns:xlink="http://www.w3.org/1999/xlink" viewBox="0 0 635.064 517">
  <defs>
    <style>
      .cls-1, .cls-5, .cls-6, .cls-8 {
        fill: none;
      }

      .cls-2, .cls-7 {
        fill: #fff;
      }

      .cls-2 {
        stroke: #000;
        stroke-width: 17px;
      }

      .cls-2, .cls-5, .cls-6, .cls-8 {
        stroke-miterlimit: 10;
      }

      .cls-3 {
        clip-path: url(#clip-path);
      }

      .cls-4 {
        fill: #f99;
      }

      .cls-5, .cls-6, .cls-8 {
        stroke: #f66;
      }

      .cls-5 {
        stroke-width: 5px;
      }

      .cls-6 {
        stroke-width: 4px;
      }

      .cls-8 {
        stroke-width: 2px;
      }
    </style>
    <clipPath id="clip-path" transform="translate(92.392 8.5)">
      <rect class="cls-1" x="-92.392" y="23.702" width="635.064" height="476.298"/>
    </clipPath>
  </defs>
  <title>ProfPic</title>
  <rect class="cls-2" x="92.392" y="8.5" width="500" height="500"/>
  <g class="cls-3">
    <rect class="cls-4" x="229.157" y="300.43" width="47.754" height="87.445"/>
    <rect class="cls-5" x="229.157" y="300.43" width="47.754" height="87.445"/>
    <rect class="cls-4" x="355.673" y="300.43" width="47.754" height="87.445"/>
    <rect class="cls-5" x="355.673" y="300.43" width="47.754" height="87.445"/>
    <g class="cls-3">
      <path class="cls-4" d="M289.328,321.7H167.153a68.22,68.22,0,1,1,0-136.44H289.328a68.22,68.22,0,0,1,0,136.44" transform="translate(92.392 8.5)"/>
      <path class="cls-5" d="M289.328,321.7H167.153a68.22,68.22,0,1,1,0-136.44H289.328a68.22,68.22,0,0,1,0,136.44Z" transform="translate(92.392 8.5)"/>
      <path class="cls-4" d="M409.643,180.3c0,34.937-29.71,63.258-66.359,63.258s-66.359-28.322-66.359-63.258,29.71-63.258,66.359-63.258,66.359,28.322,66.359,63.258" transform="translate(92.392 8.5)"/>
      <ellipse class="cls-5" cx="435.676" cy="188.797" rx="66.359" ry="63.258"/>
      <path class="cls-4" d="M364.99,206.035c0,8.049-8.469,14.574-18.915,14.574s-18.915-6.525-18.915-14.574,8.469-14.574,18.915-14.574,18.915,6.525,18.915,14.574" transform="translate(92.392 8.5)"/>
      <ellipse class="cls-5" cx="438.467" cy="214.535" rx="18.915" ry="14.574"/>
      <path class="cls-4" d="M346.385,206.345a6.2,6.2,0,1,1-6.2-6.2,6.2,6.2,0,0,1,6.2,6.2" transform="translate(92.392 8.5)"/>
      <circle class="cls-5" cx="432.576" cy="214.845" r="6.202"/>
      <path class="cls-4" d="M358.789,206.345a6.2,6.2,0,1,1-6.2-6.2,6.2,6.2,0,0,1,6.2,6.2" transform="translate(92.392 8.5)"/>
      <circle class="cls-5" cx="444.979" cy="214.845" r="6.202"/>
      <path class="cls-4" d="M329.64,170.995A10.543,10.543,0,1,1,319.1,160.451a10.543,10.543,0,0,1,10.543,10.543" transform="translate(92.392 8.5)"/>
      <circle class="cls-5" cx="411.489" cy="179.495" r="10.543"/>
      <path class="cls-4" d="M387.937,170.995a10.543,10.543,0,1,1-10.543-10.543,10.543,10.543,0,0,1,10.543,10.543" transform="translate(92.392 8.5)"/>
      <circle class="cls-5" cx="469.786" cy="179.495" r="10.543"/>
      <path class="cls-4" d="M398.681,147.725s16.3,7.273,24.341-10.975c4.743-10.77,11.909-19.3,17.9-25.578a2.212,2.212,0,0,0-2.158-3.668c-7.58,1.976-21.488,3.226-33.183,4.516-18.533,2.044-17.637,23.092-17.637,23.092" transform="translate(92.392 8.5)"/>
      <path class="cls-6" d="M398.681,147.725s16.3,7.273,24.341-10.975c4.743-10.77,11.909-19.3,17.9-25.578a2.212,2.212,0,0,0-2.158-3.668c-7.58,1.976-21.488,3.226-33.183,4.516-18.533,2.044-17.637,23.092-17.637,23.092" transform="translate(92.392 8.5)"/>
      <path class="cls-4" d="M288.771,147.725s-16.3,7.273-24.34-10.975c-4.744-10.77-11.909-19.3-17.9-25.578a2.212,2.212,0,0,1,2.159-3.668c7.579,1.976,21.488,3.226,33.183,4.516,18.533,2.044,17.636,23.092,17.636,23.092" transform="translate(92.392 8.5)"/>
      <path class="cls-6" d="M288.771,147.725s-16.3,7.273-24.34-10.975c-4.744-10.77-11.909-19.3-17.9-25.578a2.212,2.212,0,0,1,2.159-3.668c7.579,1.976,21.488,3.226,33.183,4.516,18.533,2.044,17.636,23.092,17.636,23.092" transform="translate(92.392 8.5)"/>
      <path class="cls-7" d="M329.64,170.995A10.543,10.543,0,1,1,319.1,160.451a10.543,10.543,0,0,1,10.543,10.543" transform="translate(92.392 8.5)"/>
      <circle class="cls-5" cx="411.489" cy="179.495" r="10.543"/>
      <path class="cls-7" d="M387.937,170.995a10.543,10.543,0,1,1-10.543-10.543,10.543,10.543,0,0,1,10.543,10.543" transform="translate(92.392 8.5)"/>
      <circle class="cls-5" cx="469.786" cy="179.495" r="10.543"/>
      <path d="M324.058,170.839a4.806,4.806,0,1,1-4.806-4.806,4.807,4.807,0,0,1,4.806,4.806" transform="translate(92.392 8.5)"/>
      <path d="M382.355,170.839a4.806,4.806,0,1,1-4.806-4.806,4.807,4.807,0,0,1,4.806,4.806" transform="translate(92.392 8.5)"/>
      <path class="cls-8" d="M117.194,208.9a32.757,32.757,0,0,1-37.541-27.143,26.205,26.205,0,0,1,21.714-30.033A20.964,20.964,0,0,1,125.394,169.1a16.772,16.772,0,0,1-13.9,19.221A13.417,13.417,0,0,1,96.12,177.2a10.733,10.733,0,0,1,8.894-12.3,8.588,8.588,0,0,1,9.842,7.115" transform="translate(92.392 8.5)"/>
    </g>
  </g>
</svg>
