<svg xmlns="http://www.w3.org/2000/svg" viewBox="0 0 265.093 385.319">
  <defs>
    <style>
      .cls-1 {
        fill: #f99;
      }

      .cls-1, .cls-2 {
        stroke: #f66;
        stroke-miterlimit: 10;
      }

      .cls-2 {
        fill: none;
      }
    </style>
  </defs>
  <title>Tony&amp;apos;s Baloney</title>
  <g id="Layer_2" data-name="Layer 2">
    <g>
      <path class="cls-1" d="M298.375,178.583c-13.18-6.33-44.01-15.58-74.85,15.26-30.73,30.73-26.49,59.61-18.57,76.78a59.818,59.818,0,0,0,7.82,12.72c.88,1.07,1.16,1.59.92,1.62-2.73.45-73.157-64.307-80.42-77.87-6.615-12.353-24.165-39.686,17.335-77.186C187.85,96.257,272.155,161.493,298.375,178.583Z" transform="translate(-110.476 -53.613)"/>
      <path class="cls-1" d="M298.225,178.676" transform="translate(-110.476 -53.613)"/>
      <path class="cls-1" d="M204.8,270.716c-7.92-17.17-12.16-46.05,18.57-76.78,30.84-30.84,61.445-22.038,74.625-15.708l3.858,2.674c.2.138.655.538.832.7,2.967,2.757.926,1.006,2.8,2.768a9.62,9.62,0,0,1,1.335,1.554l1.395,2.093s16.659,24.168,9.659,46.918l-1.92.6" transform="translate(-110.476 -53.613)"/>
      <path class="cls-1" d="M233.865,313.6s0,63.667,80,58,66.667-72,43-90.333" transform="translate(-110.476 -53.613)"/>
      <path class="cls-1" d="M225.532,295.6s4.333,72.333,88,56.667,41-81.667,27.333-96.667" transform="translate(-110.476 -53.613)"/>
      <path class="cls-1" d="M351.605,282.646c.16,19-16.62,35.5-53.38,40.96-24.57,3.65-43.24-2.56-57.05-11.92a84.624,84.624,0,0,1-15.36-13.47,98.352,98.352,0,0,1-7.3-9.16,92.022,92.022,0,0,1-10.65-19.46l108.08-34.06,1.92-.6c9.85,6.49,17.66,13.63,23.27,20.97C347.955,264.8,351.545,273.986,351.605,282.646Z" transform="translate(-110.476 -53.613)"/>
      <path class="cls-1" d="M213.533,285.06" transform="translate(-110.476 -53.613)"/>
      <path class="cls-1" d="M207.865,269.6a92.022,92.022,0,0,0,10.65,19.46l-4.98-4c.24-.03-.04-.55-.92-1.62a59.818,59.818,0,0,1-7.82-12.72" transform="translate(-110.476 -53.613)"/>
    </g>
    <g>
      <path d="M181.081,67.805C175.813,69.37,173.194,70.229,168,72.1l-1.137-3.159c10.879-3.623,21.413-6.615,32.574-9.245l.692,3.286c-5.377,1.132-8.055,1.775-13.377,3.216l7.113,26.277c-2.018.546-3.024.832-5.031,1.428Z" transform="translate(-110.476 -53.613)"/>
      <path d="M230.388,74.7c.7,8.091-6.254,12.262-13.066,13.313-7.627,1.176-14.387-1.737-15.881-8.516-1.582-7.178,4.257-12.939,12.9-14.253C223.3,63.884,229.806,68.012,230.388,74.7Zm-23.557,3.539c.919,4.721,5.193,7.556,10.27,6.778,4.959-.759,8.3-4.715,7.748-9.629-.414-3.7-3.569-8.173-10.19-7.163S206.033,74.143,206.832,78.241Z" transform="translate(-110.476 -53.613)"/>
      <path d="M236.973,69.362a54.547,54.547,0,0,0-.594-5.919c2.022-.116,3.034-.164,5.058-.237.182,1.446.273,2.169.451,3.616l.127,0c1.462-2.139,5.06-4.3,10.263-4.255,4.357.042,11.014,2.179,10.588,9.7l-.74,13.091c-2.07-.117-3.106-.163-5.178-.23l.409-12.652c.114-3.537-1.649-6.6-6.971-6.607-3.719-.006-6.564,1.94-7.441,4.191a4.273,4.273,0,0,0-.318,1.871l.427,13.2c-2.072.067-3.107.113-5.177.23Z" transform="translate(-110.476 -53.613)"/>
      <path d="M273.85,64.255c2.218,5.441,3.251,8.176,5.162,13.66.482,1.527.973,3.334,1.269,4.7l.119.017c.719-1.228,1.559-2.8,2.523-4.266,3.095-4.751,4.708-7.1,8.063-11.745,2.386.419,3.577.644,5.955,1.125-4.616,5.455-6.817,8.238-11,13.894-5,6.809-7.954,10.291-11.6,12.241A16.391,16.391,0,0,1,268,95.83c-.375-1.381-.566-2.071-.957-3.451a16.857,16.857,0,0,0,4.579-1.534,14.266,14.266,0,0,0,4.788-3.931,2.445,2.445,0,0,0,.529-.894,2.822,2.822,0,0,0-.224-1.08,223.044,223.044,0,0,0-9.077-21.231C270.125,63.894,271.368,64,273.85,64.255Z" transform="translate(-110.476 -53.613)"/>
      <path d="M313.422,61.92a52.7,52.7,0,0,1-8.7,8.893c-1.44-.232-2.161-.343-3.6-.552a53.657,53.657,0,0,0,6.194-9.418C309.761,61.242,310.982,61.458,313.422,61.92Z" transform="translate(-110.476 -53.613)"/>
      <path d="M307.087,88.5a18.674,18.674,0,0,0,6.29,3.46c3.686,1.124,5.857.345,6.431-1.376.6-1.808-.519-3.338-4.063-5.538-4.733-2.938-6.721-5.656-6.04-8.2.915-3.419,5.672-5.216,12.193-3.143a19.929,19.929,0,0,1,6.976,3.782c-.932.9-1.4,1.355-2.315,2.265a15.212,15.212,0,0,0-5.692-3.231c-3.22-1.022-5.412-.228-5.871,1.34-.51,1.742,1.047,3.02,4.5,5.272,4.6,3,6.462,5.744,5.355,8.818-1.306,3.628-5.93,4.828-12.463,2.84a22.614,22.614,0,0,1-7.364-3.693C305.844,90.055,306.256,89.535,307.087,88.5Z" transform="translate(-110.476 -53.613)"/>
    </g>
    <g>
      <path d="M175.1,379.789a64.748,64.748,0,0,1,8.186,2.487c4.364,1.612,6.952,3.287,8.622,5.446a6.78,6.78,0,0,1,1.22,6.343c-.905,2.975-4.012,4.9-8.244,4.8l-.031.091c3.218,1.884,6.606,5.549,5.242,10.135a7.773,7.773,0,0,1-5.137,5.185c-3.264,1.146-8.081.608-14.412-1.773a60.85,60.85,0,0,1-7.586-3.408Zm-.452,14.049c1.677.653,2.518.971,4.2,1.591,4.908,1.8,8.541.538,9.51-2.417,1.177-3.592-1.452-5.986-5.931-7.635a26.007,26.007,0,0,0-4.014-1.213Zm-5.609,14.4a31.307,31.307,0,0,0,4.075,1.75c5.122,1.891,10.384,1.918,11.822-2.545,1.349-4.19-2.417-7.292-7.552-9.189-1.557-.575-2.333-.87-3.882-1.473Z" transform="translate(-110.476 -53.613)"/>
      <path d="M215.32,418.849a25.648,25.648,0,0,0-.513,5.547c-1.911-.343-2.865-.524-4.771-.9.062-1.178.093-1.767.159-2.945l-.177-.036a11.54,11.54,0,0,1-9.486,1.435c-5.811-1.392-7.863-5.442-6.967-8.669,1.5-5.394,8.042-6.582,18.512-4.406l.1-.469c.381-1.875.455-5.309-4.932-6.553a16.32,16.32,0,0,0-7.277-.025c-.153-1.188-.227-1.782-.37-2.97a20.241,20.241,0,0,1,9.045.125c7.95,1.811,9.056,6.783,8.227,11.35Zm-3.71-7.1c-5.427-1.2-11.759-1.952-12.87,2.405-.674,2.643,1.226,4.465,3.864,5.082,3.694.863,6.447-.537,7.651-2.293a3.634,3.634,0,0,0,.556-1.254Z" transform="translate(-110.476 -53.613)"/>
      <path d="M227.744,392.09c1.826.267,2.74.391,4.57.62l-4.21,33.708c-2.115-.264-3.172-.407-5.283-.716Z" transform="translate(-110.476 -53.613)"/>
      <path d="M263.269,416.557c.141,8.563-7.312,12.405-14.394,12.112-7.929-.328-13.58-5.544-12.87-12.83.751-7.714,6.976-11.631,14.31-11.341C257.923,404.8,263.153,409.476,263.269,416.557Zm-22.131-.418c-.384,5.057,2.966,9.176,8.108,9.384,5.021.2,8.81-3.579,8.837-8.794.02-3.923-2.233-8.85-8-9.08S241.471,411.751,241.138,416.139Z" transform="translate(-110.476 -53.613)"/>
      <path d="M269.44,411.252c-.1-2.39-.244-4.347-.489-6.253,1.711-.072,2.567-.116,4.277-.22.2,1.522.305,2.283.512,3.8l.111-.007c1.2-2.28,4.1-4.619,8.467-5.061,3.655-.37,9.582.758,10.707,8.62l1.957,13.688c-2.111.3-3.168.442-5.284.7l-1.61-13.252c-.45-3.7-2.426-6.556-7.024-6.123a7.088,7.088,0,0,0-6.262,4.82,5.2,5.2,0,0,0-.213,1.98l.893,13.894c-2.124.137-3.187.194-5.314.285Z" transform="translate(-110.476 -53.613)"/>
      <path d="M304.439,413.288c1.179,5.571,6.107,7.031,11.263,5.833a21.265,21.265,0,0,0,7.52-3.109c.658,1.072.99,1.608,1.656,2.676a26.145,26.145,0,0,1-9.142,3.813c-8.85,2.029-14.994-1.84-16.162-8.728s2.585-13.019,10.161-14.735c8.49-1.923,12.479,3.71,13.62,7.813a13.053,13.053,0,0,1,.356,1.938C316.062,410.91,312.2,411.809,304.439,413.288Zm13.9-6.187c-.608-2.61-2.931-6.249-8.322-5.037a7.743,7.743,0,0,0-6.089,8.252C309.724,409.211,312.609,408.568,318.342,407.1Z" transform="translate(-110.476 -53.613)"/>
      <path d="M328.065,394.628c3.89,4.513,5.9,6.734,10.043,11.1,1.111,1.237,2.386,2.718,3.3,3.867l.113-.04c.05-1.489.018-3.357.116-5.172.285-5.882.364-8.815.4-14.658,1.936-.751,2.9-1.138,4.824-1.934-.2,7.23-.409,10.865-1.034,18.157-.724,8.761-2,13.519-4.779,17.069a16.6,16.6,0,0,1-5.7,4.668c-.946-1.193-1.416-1.792-2.348-2.993a16.26,16.26,0,0,0,4-3.381,13.521,13.521,0,0,0,2.89-5.878,2.563,2.563,0,0,0,.084-1.089,3.067,3.067,0,0,0-.7-.926c-6.853-6.7-10.116-10.153-16.3-17.248C325.013,395.577,326.032,395.269,328.065,394.628Z" transform="translate(-110.476 -53.613)"/>
    </g>
    <path class="cls-2" d="M132.94,110.567" transform="translate(-110.476 -53.613)"/>
    <path class="cls-2" d="M141.69,138.963a26.562,26.562,0,0,1-30.441-22.01A21.25,21.25,0,0,1,128.856,92.6a17,17,0,0,1,19.482,14.086,13.6,13.6,0,0,1-11.269,15.586,10.88,10.88,0,0,1-12.469-9.015,8.7,8.7,0,0,1,7.212-9.975,6.963,6.963,0,0,1,7.98,5.77" transform="translate(-110.476 -53.613)"/>
  </g>
  <g id="Layer_4" data-name="Layer 4">
    <path class="cls-1" d="M170.5,180.723" transform="translate(-110.476 -53.613)"/>
    <path class="cls-1" d="M212.73,206.292s-15.9,8.875-22.114-7.493c-3.536-9.309-9.4-18.827-14.607-24.287a1.923,1.923,0,0,1,1.877-3.188c6.59,1.719,14.947,5.054,25.114,6.176,16.113,1.777,19.068,17.826,19.068,17.826" transform="translate(-110.476 -53.613)"/>
    <path class="cls-1" d="M353.068,166.473" transform="translate(-110.476 -53.613)"/>
    <path class="cls-1" d="M310.838,192.042S325.013,198.365,332,182.5c4.124-9.363,10.353-16.778,15.559-22.237a1.923,1.923,0,0,0-1.877-3.188c-6.59,1.719-18.682,2.8-28.849,3.926-16.113,1.777-15.333,20.076-15.333,20.076" transform="translate(-110.476 -53.613)"/>
  </g>
</svg>
